PathFileType	3	(X/Y/Z)	D:\minhoCalibration\240510\subject1_KPNP\preferred\preferred16.trc
DataRate	CameraRate	NumFrames	NumMarkers	Units	OrigDataRate	OrigDataStartFrame	OrigNumFrames
200.0	200.0	33	10	mm	200.0	408	185	
Frame#	Time	Left_Ankle_Outer1			Left_Ankle_Inner1			Left_Knee_Outer1			Left_Knee_Inner1			Left_Wrist1			Right_Wrist1			Right_Knee_Inner1			Right_Knee_Outer1			Right_Ankle_Inner1			Right_Ankle_Outer1			
		X1	Y1	Z1	X2	Y2	Z2	X3	Y3	Z3	X4	Y4	Z4	X5	Y5	Z5	X6	Y6	Z6	X7	Y7	Z7	X8	Y8	Z8	X9	Y9	Z9	X10	Y10	Z10	
408	2.03	-545.42938	141.48784	-533.04193	-573.25513	155.56804	-484.16891	-364.21051	559.79803	-505.71011	-443.7272	549.36292	-428.26236	-448.2789	1006.6514	-726.06726	-574.08618	1189.6215	-441.06876	-315.74567	999.12091	-123.9658	-359.52057	1114.4543	-120.56611	-295.97333	1033.1567	324.30374	-240.44489	1144.5023	328.95871
409	2.035	-545.03107	139.88475	-534.33575	-573.71033	153.60854	-486.19263	-364.70413	557.75757	-501.72	-443.97205	546.33539	-426.03021	-445.28159	1006.4221	-719.98907	-575.6795	1189.2284	-436.81665	-310.46262	1005.0789	-119.19729	-350.59711	1116.5063	-120.20682	-297.65842	1031.1727	325.8692	-237.02353	1146.5341	329.07037
410	2.04	-543.87317	138.71063	-535.60052	-573.66376	152.3687	-487.92825	-364.14944	556.30249	-497.99097	-444.04221	543.93341	-422.16605	-442.25781	1005.71	-714.29205	-577.98047	1189.46	-432.0387	-305.82965	1010.9014	-118.90143	-340.43698	1116.0154	-120.39488	-296.8652	1025.1761	324.96039	-236.34065	1144.6733	327.56738
411	2.045	-542.08875	137.93677	-536.44781	-572.92957	151.0094	-489.45447	-365.00311	554.69037	-492.34595	-444.36411	540.91107	-418.50427	-439.58563	1004.7198	-708.1405	-580.88165	1189.6066	-427.76776	-302.08728	1015.0131	-122.21889	-334.23532	1114.6327	-120.58053	-297.64227	1018.1719	324.63229	-234.66295	1136.1309	329.995
412	2.05	-539.86798	137.37015	-536.83417	-571.99579	150.10202	-490.66809	-365.12454	554.2868	-486.34741	-444.55637	538.56482	-415.65738	-437.01852	1003.6055	-702.24652	-584.06573	1189.7198	-424.69424	-305.03836	1016.3572	-121.53435	-335.1666	1115.3623	-120.16481	-305.97784	1013.7573	322.82776	-238.5475	1125.7284	329.57547
413	2.055	-537.55939	137.26224	-536.98999	-570.95593	149.55621	-491.65646	-365.22388	554.63354	-479.52454	-446.17084	539.02295	-408.71512	-434.61099	1002.3074	-696.65076	-587.93927	1189.115	-421.47354	-306.78268	1015.7043	-120.32375	-338.11011	1115.8066	-117.95972	-310.94849	1005.884	324.11594	-246.21663	1113.9481	330.60999
414	2.06	-535.3811	137.33182	-536.51556	-569.9043	149.45741	-492.1879	-365.29776	555.37402	-472.42099	-447.77301	538.18964	-406.5463	-432.56104	1000.9224	-690.48114	-591.66626	1188.6421	-419.44928	-308.60318	1014.7675	-119.05904	-339.1795	1116.3499	-115.91549	-322.82224	1001.2507	325.12753	-254.0206	1102.4274	336.72116
415	2.065	-533.15112	138.04738	-536.40363	-568.58148	149.50452	-492.72211	-365.12152	556.17029	-465.15933	-450.3786	538.84241	-402.159	-430.23303	999.49756	-684.75244	-595.32898	1188.1764	-418.00903	-307.74194	1014.9374	-120.34644	-340.34317	1116.3167	-114.62466	-325.46414	989.95349	327.16995	-261.72025	1089.3029	342.65076
416	2.07	-531.23187	138.93634	-535.88202	-567.48608	150.0853	-492.82245	-365.22568	556.88092	-457.84601	-453.19583	539.76031	-397.94827	-427.95145	998.03955	-679.17505	-598.95062	1187.8848	-416.75922	-303.74692	1016.7658	-123.63274	-343.54092	1115.2794	-113.67773	-336.77252	980.89722	326.78656	-268.96695	1076.1814	347.82855
417	2.075	-529.75323	140.06294	-535.01764	-566.34265	151.06778	-492.84879	-365.27411	557.72339	-450.89697	-456.04321	540.81927	-394.01443	-425.6127	996.78168	-673.78784	-602.31879	1187.3911	-415.84219	-298.7785	1019.5914	-126.30058	-347.57388	1113.6482	-112.0633	-341.22858	968.96655	326.73288	-276.77957	1062.9043	351.31177
418	2.08	-528.5368	141.39781	-533.93048	-565.74908	151.80415	-492.0246	-365.53586	558.70435	-444.28204	-459.10486	542.36456	-388.99747	-423.24707	995.7536	-668.59308	-605.65155	1186.6991	-414.70587	-294.19107	1023.182	-127.702	-351.86426	1111.8138	-109.02409	-345.14438	954.66748	325.72968	-278.44589	1051.6815	357.61765
419	2.085	-527.82159	142.68475	-532.60034	-565.41028	152.73579	-491.19339	-366.06454	559.63318	-438.22903	-461.79257	543.495	-385.16046	-420.93042	995.02405	-663.43762	-609.10608	1185.8912	-412.97849	-290.34625	1025.4924	-125.8183	-356.50989	1108.7648	-105.18131	-346.87817	937.4837	323.65753	-295.79868	1035.0594	355.62561
420	2.09	-527.32849	144.0385	-531.23938	-565.31158	153.7364	-490.11511	-366.6698	560.68024	-432.82654	-463.37143	544.78845	-381.92978	-418.51743	994.76239	-658.41907	-612.59833	1184.9087	-410.77448	-287.81055	1023.9615	-122.00113	-361.05539	1104.7273	-101.25846	-353.24161	922.55182	320.6889	-307.59225	1021.5391	357.68695
421	2.095	-527.29333	145.14133	-529.47266	-565.12817	154.7037	-488.76761	-367.15594	561.87061	-428.04129	-465.03534	545.53162	-378.84903	-416.17313	994.91113	-653.49646	-616.20575	1183.5868	-408.01483	-288.01169	1019.0115	-119.48827	-365.18857	1100.1831	-97.170052	-355.07645	906.62354	319.68967	-320.55377	1009.8351	361.48639
422	2.1	-527.1485	146.64824	-528.38934	-565.33887	155.73915	-487.59738	-367.7356	562.82263	-423.86508	-465.67978	546.17096	-376.45505	-413.793	995.68451	-648.73022	-619.32416	1181.9303	-406.07104	-289.63708	1013.1438	-117.94629	-368.26007	1095.0134	-92.698807	-360.64081	890.61578	316.05948	-332.34103	996.09686	362.64841
423	2.105	-527.14124	147.75798	-527.01935	-565.21704	156.51865	-486.18698	-368.1467	563.91522	-420.3765	-466.76334	546.78564	-373.54456	-411.50278	997.00525	-644.24097	-622.41022	1179.8658	-404.42798	-291.50632	1006.6308	-116.72914	-369.56815	1089.2751	-88.241425	-368.77097	872.34772	309.99811	-345.44391	981.57629	363.99725
424	2.11	-527.33551	148.70067	-525.49353	-565.56818	157.77333	-485.44	-368.5325	564.73853	-417.44501	-467.01038	547.57611	-371.24918	-409.2644	998.73663	-639.9353	-626.23975	1178.3931	-399.68674	-293.93945	999.77966	-115.40272	-369.26929	1083.3402	-84.295219	-375.03088	854.88141	306.68396	-358.88773	966.06494	364.50751
425	2.115	-526.9859	149.85056	-524.81836	-565.54626	158.44626	-484.25229	-369.43918	564.97357	-414.93958	-467.12985	547.72363	-369.68591	-406.92358	1000.8279	-635.85968	-629.23242	1176.0253	-398.31168	-297.03058	992.75201	-113.80934	-368.3555	1077.4946	-80.935341	-382.84982	836.74811	301.77417	-372.23871	949.17108	364.50751
426	2.12	-526.66595	150.70338	-524.01129	-565.35327	158.97586	-483.60425	-369.80313	565.58923	-412.98575	-467.7092	548.16132	-367.47372	-404.68314	1002.9658	-631.79242	-632.18225	1173.5198	-396.84766	-300.49222	985.92291	-112.09721	-368.02008	1071.5742	-77.948044	-392.10098	819.58203	297.11206	-385.86646	930.81555	363.04031
427	2.125	-526.23969	151.45578	-523.44434	-565.0769	159.58817	-483.18335	-370.3302	565.91205	-411.32156	-467.44455	548.43365	-366.38	-402.19632	1005.1941	-627.88898	-635.25183	1170.9415	-395.38635	-303.90405	979.3551	-110.69706	-369.03671	1065.3829	-75.386139	-401.0441	800.6236	290.72482	-399.17657	911.30463	360.92511
428	2.13	-525.49829	152.06987	-523.16943	-564.78668	159.96107	-483.18362	-370.65805	566.45178	-409.85623	-467.84448	549.00323	-364.66177	-399.79404	1007.3505	-624.06281	-638.26556	1168.3518	-394.03058	-307.21622	973.05988	-109.73613	-371.52341	1058.9506	-73.323578	-411.78943	782.21405	284.15552	-412.07187	890.71967	357.85098
429	2.135	-524.79315	152.46759	-523.01312	-564.37006	160.58493	-483.45074	-370.9014	566.93079	-408.64249	-468.31091	549.14325	-364.12231	-397.5	1009.4982	-620.32446	-641.15845	1165.6642	-392.86328	-310.49728	966.78442	-109.02151	-375.06424	1052.2283	-71.536667	-421.60074	763.82745	276.811	-424.44839	869.61945	354.20752
430	2.14	-524.01837	152.59023	-522.73535	-563.80286	160.56354	-483.69644	-371.47568	567.09619	-407.32001	-469.35809	549.42725	-363.35599	-395.2009	1011.5375	-616.69885	-644.27814	1163.1497	-391.43384	-313.61185	960.2547	-108.64522	-379.15945	1045.1609	-69.656441	-431.78226	745.18256	268.94681	-436.3501	848.18634	349.74484
431	2.145	-522.82501	152.87422	-523.37207	-563.56934	160.66139	-484.98044	-371.78888	567.40802	-406.15604	-470.08783	549.48486	-363.39337	-393.57562	1013.4521	-612.59918	-647.49017	1160.8096	-390.05826	-316.04816	954.3103	-108.7551	-383.79602	1037.7251	-67.401741	-441.27768	725.99927	260.01071	-447.71915	826.57806	344.90359
432	2.15	-521.5979	152.81786	-523.85425	-562.0733	160.54373	-485.06354	-372.32065	567.55444	-404.88177	-471.32172	549.34607	-363.40436	-391.7052	1015.1642	-609.15167	-650.49475	1158.5786	-389.00269	-319.3934	948.54779	-108.39815	-388.93015	1029.9879	-64.92662	-451.67349	706.14935	250.75853	-458.78741	804.21326	338.45068
433	2.155	-520.53925	152.48683	-524.15039	-561.25226	160.37819	-486.22934	-372.22617	567.81848	-404.04892	-471.95581	548.76404	-363.59448	-389.55173	1016.751	-606.32556	-653.47931	1156.4426	-387.96152	-323.95013	942.38104	-107.11099	-394.58643	1021.9391	-62.461979	-460.60751	687.06824	240.47549	-469.03802	781.84003	331.87808
434	2.16	-519.11658	152.51892	-525.27972	-559.98279	160.31854	-487.65573	-372.44089	567.78754	-403.03827	-472.84891	548.3175	-364.14618	-388.24521	1018.0936	-602.82837	-656.15619	1154.2125	-387.16092	-327.57111	936.81573	-106.55336	-400.7952	1013.6298	-60.069458	-469.93802	667.34235	229.78909	-479.09924	758.84863	324.09805
435	2.165	-517.83301	151.83336	-525.85437	-558.80347	159.80759	-488.88116	-372.58588	567.52313	-402.15833	-473.92697	548.49854	-364.16776	-386.61569	1019.175	-599.93317	-658.58386	1151.7679	-386.34451	-331.55728	931.12817	-105.68966	-407.46494	1005.027	-57.845104	-479.33817	647.09631	218.39896	-488.66666	735.58044	315.88489
436	2.17	-516.05536	151.75685	-527.21497	-557.77332	159.30827	-490.28973	-372.6044	567.23901	-401.42151	-474.57117	547.97485	-364.7482	-385.03918	1019.9928	-597.13324	-660.48981	1149.1393	-385.74463	-336.02292	925.36505	-104.0345	-414.42911	996.15674	-55.709064	-487.18051	627.79065	205.71016	-497.93259	711.93481	306.96774
437	2.175	-514.5686	151.19914	-528.19238	-556.53717	158.86818	-491.71277	-372.62766	566.82568	-400.67303	-475.08609	547.11096	-365.46078	-383.61154	1020.6398	-594.27673	-662.13916	1146.4587	-385.26001	-339.83658	918.8587	-102.73884	-421.58575	986.92542	-53.619537	-496.31027	608.40668	193.66818	-507.45154	687.49689	296.07968
438	2.18	-513.11816	150.61543	-529.27289	-555.49585	158.29597	-493.31537	-372.50964	566.2713	-400.10388	-475.87247	546.4071	-365.65921	-382.71198	1021.0743	-590.93127	-663.65576	1143.7401	-384.80252	-343.98419	912.2522	-100.77252	-428.90405	977.31079	-51.594318	-504.241	589.24036	179.83542	-516.6272	662.77167	284.92285
439	2.185	-511.59479	150.06557	-530.40314	-554.43341	157.83406	-494.9292	-372.35184	565.73828	-399.57797	-476.0679	545.65405	-366.07782	-381.13968	1021.2827	-588.53894	-664.66888	1140.8724	-384.61804	-348.32999	905.29431	-98.583961	-436.30423	967.19617	-49.634556	-512.04742	570.32812	165.63768	-525.92645	638.32495	271.99753
440	2.19	-510.33145	149.33836	-531.22571	-553.4292	157.23724	-496.44305	-371.73508	565.35895	-399.24051	-476.01587	544.935	-366.22983	-380.29037	1021.254	-585.53363	-665.58478	1137.9844	-384.51163	-353.38248	897.33728	-96.177032	-443.79276	956.65875	-47.823509	-520.69171	552.00671	151.08417	-535.56885	613.83923	258.33188
